<svg width="22" height="22" viewBox="0 0 22 22" fill="none" xmlns="http://www.w3.org/2000/svg">
<g id="Icon" clip-path="url(#clip0_1_7622)">
<path id="Vector" d="M11 0.275024C4.91543 0.275024 0 5.19045 0 11.275C0 16.1213 3.16329 20.2479 7.52714 21.725C8.07714 21.8287 8.28457 21.4846 8.28457 21.2096V19.3537C5.225 20.0059 4.57129 17.875 4.57129 17.875C4.05586 16.6022 3.33457 16.2596 3.33457 16.2596C2.33829 15.5713 3.40371 15.6059 3.40371 15.6059C4.50371 15.675 5.08671 16.7405 5.08671 16.7405C6.08457 18.425 7.66543 17.9442 8.28457 17.6676C8.38829 16.9463 8.66171 16.4655 8.97129 16.1905C6.53086 15.9155 3.95371 14.9537 3.95371 10.7596C3.95371 9.55588 4.36543 8.59417 5.08671 7.80374C4.98457 7.52874 4.60586 6.39417 5.19043 4.88088C5.19043 4.88088 6.11757 4.57131 8.21543 6.01545C9.11163 5.7699 10.0362 5.6431 10.9654 5.63831C11.8926 5.63831 12.8559 5.77502 13.7154 6.01545C15.8133 4.60588 16.7404 4.88088 16.7404 4.88088C17.325 6.39417 16.9463 7.52874 16.8441 7.80374C17.567 8.55802 17.9787 9.55588 17.9787 10.758C17.9787 14.9867 15.4 15.9155 12.9596 16.1905C13.3367 16.5346 13.7154 17.1867 13.7154 18.2176V21.2442C13.7154 21.5537 13.9213 21.8963 14.4713 21.7596C18.8383 20.2463 22 16.1213 22 11.275C22 5.19045 17.0846 0.275024 11 0.275024Z" fill="#FAFAFA"/>
</g>
<defs>
<clipPath id="clip0_1_7622">
<rect width="22" height="22" fill="white"/>
</clipPath>
</defs>
</svg>
