<svg width="16" height="14" viewBox="0 0 16 14" fill="none" xmlns="http://www.w3.org/2000/svg">
<g id="gridicons:create">
<path id="Vector" d="M14 8.16667V11.0833C14 11.3928 13.8595 11.6895 13.6095 11.9083C13.3594 12.1271 13.0203 12.25 12.6667 12.25H3.33333C2.97971 12.25 2.64057 12.1271 2.39052 11.9083C2.14048 11.6895 2 11.3928 2 11.0833V2.91667C2 2.60725 2.14048 2.3105 2.39052 2.09171C2.64057 1.87292 2.97971 1.75 3.33333 1.75H6.66667V2.91667H3.33333V11.0833H12.6667V8.16667H14Z" fill="#18181B"/>
<path id="Vector_2" d="M14 4.08333H11.3333V1.75H10V4.08333H7.33334V5.25H10V7.58333H11.3333V5.25H14V4.08333Z" fill="#18181B"/>
</g>
</svg>
