<svg width="30" height="30" viewBox="0 0 30 30" fill="none" xmlns="http://www.w3.org/2000/svg">
<g id="Icon" clip-path="url(#clip0_1_7532)">
<path id="Vector" fill-rule="evenodd" clip-rule="evenodd" d="M14.347 0C12.155 0.0916708 10.0101 0.665273 8.06501 1.68L14.347 12.56V0ZM14.347 17.443L8.06701 28.32C10.0115 29.3344 12.1557 29.908 14.347 30V17.443ZM15.652 30V17.432L21.938 28.319C19.9916 29.3343 17.8454 29.9089 15.652 30ZM15.652 12.57V0C17.913 0.096 20.045 0.693 21.939 1.682L15.652 12.57ZM2.33601 23.067L13.22 16.783L6.93601 27.667C5.08653 26.4863 3.51673 24.9165 2.33601 23.067ZM27.666 6.935L16.786 13.216L23.069 2.336C24.9177 3.51667 26.4857 5.08609 27.666 6.935ZM2.33501 6.934C3.51576 5.08454 5.08555 3.51475 6.93501 2.334L13.219 13.218L2.33501 6.934ZM1.68101 8.064C0.665744 10.0104 0.0921272 12.1566 0.00100708 14.35H12.568L1.68101 8.064ZM1.68101 21.937C0.666311 19.9918 0.0927105 17.847 0.00100708 15.655H12.563L1.68201 21.937H1.68101ZM17.435 14.35H30C29.9087 12.157 29.3351 10.0111 28.32 8.065L17.435 14.35ZM28.32 21.936L17.44 15.656H30C29.908 17.8473 29.3344 19.9915 28.32 21.936ZM16.786 16.785L23.067 27.665C24.916 26.4844 26.4854 24.915 27.666 23.066L16.786 16.785Z" fill="#FAFAFA"/>
</g>
<defs>
<clipPath id="clip0_1_7532">
<rect width="30" height="30" fill="white"/>
</clipPath>
</defs>
</svg>
