<svg width="26" height="25" viewBox="0 0 26 25" fill="none" xmlns="http://www.w3.org/2000/svg">
<g id="lucide:instagram">
<g id="Group">
<path id="Vector" d="M18.4167 2.08331H7.58332C4.59178 2.08331 2.16666 4.41516 2.16666 7.29165V17.7083C2.16666 20.5848 4.59178 22.9166 7.58332 22.9166H18.4167C21.4082 22.9166 23.8333 20.5848 23.8333 17.7083V7.29165C23.8333 4.41516 21.4082 2.08331 18.4167 2.08331Z" stroke="white" stroke-linecap="round" stroke-linejoin="round"/>
<path id="Vector_2" d="M18.9583 6.77081H18.9692M17.3333 11.8437C17.467 12.7107 17.313 13.596 16.8932 14.374C16.4734 15.1519 15.8092 15.7827 14.9951 16.1767C14.1809 16.5707 13.2583 16.7079 12.3584 16.5687C11.4586 16.4294 10.6272 16.0209 9.98274 15.4012C9.33824 14.7815 8.91337 13.9821 8.76857 13.1169C8.62377 12.2516 8.7664 11.3645 9.17618 10.5816C9.58597 9.79879 10.242 9.16013 11.0511 8.75648C11.8601 8.35284 12.7809 8.20476 13.6825 8.33331C14.6022 8.46444 15.4536 8.8765 16.111 9.50863C16.7684 10.1408 17.197 10.9594 17.3333 11.8437Z" stroke="white" stroke-linecap="round" stroke-linejoin="round"/>
</g>
</g>
</svg>
