<svg width="26" height="25" viewBox="0 0 26 25" fill="none" xmlns="http://www.w3.org/2000/svg">
<g id="ri:linkedin-fill">
<path id="Vector" d="M7.51833 5.20834C7.51804 5.76087 7.2895 6.29067 6.88296 6.68117C6.47643 7.07168 5.92522 7.29091 5.35058 7.29063C4.77595 7.29035 4.22496 7.07059 3.81883 6.6797C3.41271 6.2888 3.18471 5.75879 3.185 5.20625C3.18529 4.65372 3.41383 4.12393 3.82037 3.73342C4.2269 3.34291 4.77811 3.12369 5.35275 3.12396C5.92738 3.12424 6.47837 3.344 6.8845 3.73489C7.29062 4.12579 7.51862 4.6558 7.51833 5.20834ZM7.58333 8.83334H3.25V21.875H7.58333V8.83334ZM14.43 8.83334H10.1183V21.875H14.3867V15.0313C14.3867 11.2188 19.5542 10.8646 19.5542 15.0313V21.875H23.8333V13.6146C23.8333 7.1875 16.185 7.42709 14.3867 10.5833L14.43 8.83334Z" fill="white"/>
</g>
</svg>
