<svg width="33" height="43" viewBox="0 0 33 43" fill="none" xmlns="http://www.w3.org/2000/svg">
<path id="Vector" d="M32.4913 21.0014C32.2363 28.3399 26.3881 34.3629 18.7897 35.3977L18.3571 35.4566V35.8932V42.2117H14.6429V35.8932V35.4566L14.2103 35.3977C6.6119 34.3629 0.763693 28.3399 0.508675 21.0014H4.22568C4.35815 23.9067 5.64119 26.6617 7.82335 28.7178C10.1293 30.8907 13.2509 32.1066 16.5 32.1066C19.7491 32.1066 22.8707 30.8907 25.1766 28.7178C27.3588 26.6617 28.6419 23.9067 28.7743 21.0014H32.4913ZM16.5 1.01208C18.2521 1.01208 19.927 1.6682 21.1574 2.82757C22.3868 3.98598 23.0714 5.55055 23.0714 7.17519V20.5014C23.0714 22.126 22.3868 23.6906 21.1574 24.849C19.927 26.0084 18.2521 26.6645 16.5 26.6645C14.7479 26.6645 13.073 26.0084 11.8426 24.849C10.6132 23.6906 9.92857 22.126 9.92857 20.5014V7.17519C9.92857 5.55055 10.6132 3.98598 11.8426 2.82757C13.073 1.6682 14.7479 1.01208 16.5 1.01208Z" fill="#FAFAFA" stroke="#FAFAFA"/>
</svg>
