<svg width="48" height="48" viewBox="0 0 48 48" fill="none" xmlns="http://www.w3.org/2000/svg">
<g id="Group 33824">
<g id="Ellipse 4" filter="url(#filter0_d_1_7541)">
<circle cx="21" cy="20" r="20" fill="#18181B"/>
<circle cx="21" cy="20" r="19.5" stroke="#2B2B2B"/>
</g>
<path id="Vector" d="M12 26.9668C12 25.3536 12.9482 23.8064 14.636 22.6657C16.3239 21.525 18.6131 20.8842 21 20.8842C23.3869 20.8842 25.6761 21.525 27.364 22.6657C29.0518 23.8064 30 25.3536 30 26.9668H12ZM21 20.1239C17.2706 20.1239 14.25 18.0824 14.25 15.5619C14.25 13.0415 17.2706 11 21 11C24.7294 11 27.75 13.0415 27.75 15.5619C27.75 18.0824 24.7294 20.1239 21 20.1239Z" fill="url(#paint0_linear_1_7541)"/>
</g>
<defs>
<filter id="filter0_d_1_7541" x="0" y="0" width="48" height="48" filterUnits="userSpaceOnUse" color-interpolation-filters="sRGB">
<feFlood flood-opacity="0" result="BackgroundImageFix"/>
<feColorMatrix in="SourceAlpha" type="matrix" values="0 0 0 0 0 0 0 0 0 0 0 0 0 0 0 0 0 0 127 0" result="hardAlpha"/>
<feOffset dx="3" dy="4"/>
<feGaussianBlur stdDeviation="2"/>
<feComposite in2="hardAlpha" operator="out"/>
<feColorMatrix type="matrix" values="0 0 0 0 0.466667 0 0 0 0 0.466667 0 0 0 0 0.466667 0 0 0 1 0"/>
<feBlend mode="normal" in2="BackgroundImageFix" result="effect1_dropShadow_1_7541"/>
<feBlend mode="normal" in="SourceGraphic" in2="effect1_dropShadow_1_7541" result="shape"/>
</filter>
<linearGradient id="paint0_linear_1_7541" x1="12" y1="12.9958" x2="18.5645" y2="33.3946" gradientUnits="userSpaceOnUse">
<stop stop-color="#08183E"/>
<stop offset="0.335" stop-color="#1A5CFF"/>
<stop offset="0.805" stop-color="#C7CCD8"/>
</linearGradient>
</defs>
</svg>
