<svg width="14" height="14" viewBox="0 0 14 14" fill="none" xmlns="http://www.w3.org/2000/svg">
<g id="bi:save" clip-path="url(#clip0_1_7563)">
<g id="Vector">
<mask id="path-1-inside-1_1_7563" fill="white">
<path d="M1.75 1.70647C1.51794 1.70647 1.29538 1.78691 1.13128 1.93009C0.967187 2.07327 0.875 2.26747 0.875 2.46995V11.6317C0.875 11.8342 0.967187 12.0284 1.13128 12.1716C1.29538 12.3148 1.51794 12.3952 1.75 12.3952H12.25C12.4821 12.3952 12.7046 12.3148 12.8687 12.1716C13.0328 12.0284 13.125 11.8342 13.125 11.6317V2.46995C13.125 2.26747 13.0328 2.07327 12.8687 1.93009C12.7046 1.78691 12.4821 1.70647 12.25 1.70647H8.3125C8.08044 1.70647 7.85788 1.78691 7.69378 1.93009C7.52969 2.07327 7.4375 2.26747 7.4375 2.46995V8.03802L9.75275 6.01708C9.8349 5.9454 9.94632 5.90513 10.0625 5.90513C10.1787 5.90513 10.2901 5.9454 10.3722 6.01708C10.4544 6.08876 10.5006 6.18598 10.5006 6.28736C10.5006 6.38873 10.4544 6.48595 10.3722 6.55763L7.30975 9.22981C7.26911 9.26536 7.22083 9.29356 7.16768 9.31281C7.11453 9.33205 7.05755 9.34196 7 9.34196C6.94245 9.34196 6.88547 9.33205 6.83232 9.31281C6.77917 9.29356 6.73089 9.26536 6.69025 9.22981L3.62775 6.55763C3.58707 6.52213 3.55481 6.48 3.53279 6.43363C3.51078 6.38725 3.49945 6.33755 3.49945 6.28736C3.49945 6.23716 3.51078 6.18746 3.53279 6.14109C3.55481 6.09471 3.58707 6.05258 3.62775 6.01708C3.66843 5.98159 3.71672 5.95344 3.76986 5.93423C3.82301 5.91502 3.87997 5.90513 3.9375 5.90513C3.99503 5.90513 4.05199 5.91502 4.10514 5.93423C4.15828 5.95344 4.20657 5.98159 4.24725 6.01708L6.5625 8.03802V2.46995C6.5625 2.06498 6.74687 1.67659 7.07506 1.39023C7.40325 1.10387 7.84837 0.942993 8.3125 0.942993L12.25 0.942993C12.7141 0.942993 13.1592 1.10387 13.4874 1.39023C13.8156 1.67659 14 2.06498 14 2.46995V11.6317C14 12.0367 13.8156 12.4251 13.4874 12.7114C13.1592 12.9978 12.7141 13.1587 12.25 13.1587H1.75C1.28587 13.1587 0.840752 12.9978 0.512563 12.7114C0.184375 12.4251 0 12.0367 0 11.6317V2.46995C0 2.06498 0.184375 1.67659 0.512563 1.39023C0.840752 1.10387 1.28587 0.942993 1.75 0.942993L3.9375 0.942993C4.05353 0.942993 4.16481 0.983212 4.24686 1.0548C4.32891 1.12639 4.375 1.22349 4.375 1.32473C4.375 1.42598 4.32891 1.52307 4.24686 1.59466C4.16481 1.66625 4.05353 1.70647 3.9375 1.70647H1.75Z"/>
</mask>
<path d="M1.75 1.70647C1.51794 1.70647 1.29538 1.78691 1.13128 1.93009C0.967187 2.07327 0.875 2.26747 0.875 2.46995V11.6317C0.875 11.8342 0.967187 12.0284 1.13128 12.1716C1.29538 12.3148 1.51794 12.3952 1.75 12.3952H12.25C12.4821 12.3952 12.7046 12.3148 12.8687 12.1716C13.0328 12.0284 13.125 11.8342 13.125 11.6317V2.46995C13.125 2.26747 13.0328 2.07327 12.8687 1.93009C12.7046 1.78691 12.4821 1.70647 12.25 1.70647H8.3125C8.08044 1.70647 7.85788 1.78691 7.69378 1.93009C7.52969 2.07327 7.4375 2.26747 7.4375 2.46995V8.03802L9.75275 6.01708C9.8349 5.9454 9.94632 5.90513 10.0625 5.90513C10.1787 5.90513 10.2901 5.9454 10.3722 6.01708C10.4544 6.08876 10.5006 6.18598 10.5006 6.28736C10.5006 6.38873 10.4544 6.48595 10.3722 6.55763L7.30975 9.22981C7.26911 9.26536 7.22083 9.29356 7.16768 9.31281C7.11453 9.33205 7.05755 9.34196 7 9.34196C6.94245 9.34196 6.88547 9.33205 6.83232 9.31281C6.77917 9.29356 6.73089 9.26536 6.69025 9.22981L3.62775 6.55763C3.58707 6.52213 3.55481 6.48 3.53279 6.43363C3.51078 6.38725 3.49945 6.33755 3.49945 6.28736C3.49945 6.23716 3.51078 6.18746 3.53279 6.14109C3.55481 6.09471 3.58707 6.05258 3.62775 6.01708C3.66843 5.98159 3.71672 5.95344 3.76986 5.93423C3.82301 5.91502 3.87997 5.90513 3.9375 5.90513C3.99503 5.90513 4.05199 5.91502 4.10514 5.93423C4.15828 5.95344 4.20657 5.98159 4.24725 6.01708L6.5625 8.03802V2.46995C6.5625 2.06498 6.74687 1.67659 7.07506 1.39023C7.40325 1.10387 7.84837 0.942993 8.3125 0.942993L12.25 0.942993C12.7141 0.942993 13.1592 1.10387 13.4874 1.39023C13.8156 1.67659 14 2.06498 14 2.46995V11.6317C14 12.0367 13.8156 12.4251 13.4874 12.7114C13.1592 12.9978 12.7141 13.1587 12.25 13.1587H1.75C1.28587 13.1587 0.840752 12.9978 0.512563 12.7114C0.184375 12.4251 0 12.0367 0 11.6317V2.46995C0 2.06498 0.184375 1.67659 0.512563 1.39023C0.840752 1.10387 1.28587 0.942993 1.75 0.942993L3.9375 0.942993C4.05353 0.942993 4.16481 0.983212 4.24686 1.0548C4.32891 1.12639 4.375 1.22349 4.375 1.32473C4.375 1.42598 4.32891 1.52307 4.24686 1.59466C4.16481 1.66625 4.05353 1.70647 3.9375 1.70647H1.75Z" fill="white"/>
<path d="M1.75 1.70647V-20.2935V1.70647ZM0.875 2.46995H-21.125H0.875ZM0.875 11.6317H-21.125H0.875ZM12.25 1.70647V-20.2935V1.70647ZM8.3125 1.70647V-20.2935V1.70647ZM7.4375 8.03802H-14.5625V56.4435L21.9047 24.6121L7.4375 8.03802ZM9.75275 6.01708L-4.71133 -10.5597L-4.71443 -10.557L9.75275 6.01708ZM10.5006 6.28736L32.5006 6.28736L10.5006 6.28736ZM10.3722 6.55763L-4.09183 -10.0192L-4.09183 -10.0192L10.3722 6.55763ZM7.30975 9.22981L-7.15433 -7.347L-7.16471 -7.33794L-7.17508 -7.32887L7.30975 9.22981ZM6.69025 9.22981L21.1751 -7.32887L21.1647 -7.33794L21.1543 -7.347L6.69025 9.22981ZM3.62775 6.55763L18.0918 -10.0192L3.62775 6.55763ZM3.49945 6.28736L-18.5006 6.28736L3.49945 6.28736ZM3.9375 5.90513L3.9375 27.9051L3.9375 5.90513ZM4.24725 6.01708L18.7144 -10.557L18.7113 -10.5597L4.24725 6.01708ZM6.5625 8.03802L-7.90468 24.6121L28.5625 56.4435V8.03802H6.5625ZM8.3125 0.942993V-21.057V0.942993ZM0 11.6317H-22H0ZM0 2.46995H-22H0ZM1.75 0.942993V-21.057V0.942993ZM3.9375 1.70647V23.7065V1.70647ZM1.75 -20.2935C-3.42153 -20.2935 -8.88476 -18.5278 -13.3328 -14.6467L15.5954 18.5069C11.4755 22.1017 6.4574 23.7065 1.75 23.7065V-20.2935ZM-13.3328 -14.6467C-17.8762 -10.6823 -21.125 -4.61038 -21.125 2.46995H22.875C22.875 9.14531 19.8106 14.8289 15.5954 18.5069L-13.3328 -14.6467ZM-21.125 2.46995V11.6317H22.875V2.46995H-21.125ZM-21.125 11.6317C-21.125 18.7121 -17.8762 24.784 -13.3328 28.7484L15.5954 -4.40523C19.8106 -0.727234 22.875 4.95634 22.875 11.6317H-21.125ZM-13.3328 28.7484C-8.88478 32.6295 -3.42156 34.3952 1.75 34.3952V-9.6048C6.45743 -9.6048 11.4755 -7.99997 15.5954 -4.40523L-13.3328 28.7484ZM1.75 34.3952H12.25V-9.6048H1.75V34.3952ZM12.25 34.3952C17.4216 34.3952 22.8848 32.6295 27.3328 28.7484L-1.59536 -4.40523C2.52446 -7.99997 7.54256 -9.6048 12.25 -9.6048V34.3952ZM27.3328 28.7484C31.8762 24.784 35.125 18.7121 35.125 11.6317H-8.875C-8.875 4.95632 -5.81056 -0.727251 -1.59536 -4.40523L27.3328 28.7484ZM35.125 11.6317V2.46995H-8.875V11.6317H35.125ZM35.125 2.46995C35.125 -4.6104 31.8762 -10.6824 27.3328 -14.6467L-1.59536 18.5069C-5.81058 14.8289 -8.875 9.14534 -8.875 2.46995H35.125ZM27.3328 -14.6467C22.8848 -18.5278 17.4215 -20.2935 12.25 -20.2935V23.7065C7.54259 23.7065 2.52448 22.1017 -1.59536 18.5069L27.3328 -14.6467ZM12.25 -20.2935H8.3125V23.7065H12.25V-20.2935ZM8.3125 -20.2935C3.14096 -20.2935 -2.32226 -18.5278 -6.77029 -14.6467L22.1579 18.5069C18.038 22.1017 13.0199 23.7065 8.3125 23.7065V-20.2935ZM-6.77029 -14.6467C-11.3137 -10.6824 -14.5625 -4.6104 -14.5625 2.46995H29.4375C29.4375 9.14534 26.3731 14.8289 22.1579 18.5069L-6.77029 -14.6467ZM-14.5625 2.46995V8.03802H29.4375V2.46995H-14.5625ZM21.9047 24.6121L24.2199 22.5912L-4.71443 -10.557L-7.02968 -8.53608L21.9047 24.6121ZM24.2168 22.5939C20.0151 26.2601 14.8859 27.9051 10.0625 27.9051V-16.0949C5.00678 -16.0949 -0.345288 -14.3693 -4.71133 -10.5597L24.2168 22.5939ZM10.0625 27.9051C5.23914 27.9051 0.109909 26.2601 -4.09183 22.5939L24.8363 -10.5597C20.4703 -14.3693 15.1182 -16.0949 10.0625 -16.0949V27.9051ZM-4.09183 22.5939C-8.389 18.8444 -11.4994 13.0638 -11.4994 6.28736L32.5006 6.28736C32.5006 -0.691871 29.2978 -6.66686 24.8363 -10.5597L-4.09183 22.5939ZM-11.4994 6.28736C-11.4994 -0.489127 -8.389 -6.26968 -4.09183 -10.0192L24.8363 23.1344C29.2978 19.2416 32.5006 13.2666 32.5006 6.28736L-11.4994 6.28736ZM-4.09183 -10.0192L-7.15433 -7.347L21.7738 25.8066L24.8363 23.1344L-4.09183 -10.0192ZM-7.17508 -7.32887C-5.06468 -9.17496 -2.7142 -10.5069 -0.322005 -11.373L14.6574 29.9987C17.1559 29.094 19.6029 27.7057 21.7946 25.7885L-7.17508 -7.32887ZM-0.322005 -11.373C2.06987 -12.2391 4.55049 -12.658 7 -12.658V31.342C9.5646 31.342 12.1592 30.9032 14.6574 29.9987L-0.322005 -11.373ZM7 -12.658C9.44949 -12.658 11.9301 -12.2391 14.322 -11.373L-0.657363 29.9987C1.84084 30.9032 4.43542 31.342 7 31.342V-12.658ZM14.322 -11.373C16.7143 -10.5069 19.0647 -9.17492 21.1751 -7.32887L-7.79458 25.7885C-5.60294 27.7056 -3.15593 29.094 -0.657363 29.9987L14.322 -11.373ZM21.1543 -7.347L18.0918 -10.0192L-10.8363 23.1344L-7.77383 25.8066L21.1543 -7.347ZM18.0918 -10.0192C20.2056 -8.17477 22.0683 -5.82129 23.4071 -3.00103L-16.3415 15.8683C-14.9586 18.7813 -13.0315 21.219 -10.8363 23.1344L18.0918 -10.0192ZM23.4071 -3.00103C24.7519 -0.168149 25.4994 2.99836 25.4994 6.28736L-18.5006 6.28736C-18.5006 9.67674 -17.7303 12.9427 -16.3415 15.8683L23.4071 -3.00103ZM25.4994 6.28736C25.4994 9.57635 24.7519 12.7429 23.4071 15.5757L-16.3415 -3.29357C-17.7303 -0.367944 -18.5006 2.89797 -18.5006 6.28736L25.4994 6.28736ZM23.4071 15.5757C22.0683 18.396 20.2056 20.7495 18.0918 22.5939L-10.8363 -10.5597C-13.0315 -8.64433 -14.9586 -6.20658 -16.3415 -3.29357L23.4071 15.5757ZM18.0918 22.5939C15.9835 24.4335 13.6364 25.761 11.2477 26.6244L-3.708 -14.7559C-6.20301 -13.8542 -8.64663 -12.4703 -10.8363 -10.5597L18.0918 22.5939ZM11.2477 26.6244C8.85951 27.4875 6.38302 27.9051 3.9375 27.9051L3.9375 -16.0949C1.37693 -16.0949 -1.21349 -15.6575 -3.708 -14.7559L11.2477 26.6244ZM3.9375 27.9051C1.49199 27.9051 -0.9845 27.4875 -3.37273 26.6244L11.583 -14.7559C9.08848 -15.6575 6.49806 -16.0949 3.9375 -16.0949L3.9375 27.9051ZM-3.37273 26.6244C-5.76148 25.761 -8.10851 24.4335 -10.2168 22.5939L18.7113 -10.5597C16.5217 -12.4703 14.078 -13.8541 11.583 -14.7559L-3.37273 26.6244ZM-10.2199 22.5912L-7.90468 24.6121L21.0297 -8.53608L18.7144 -10.557L-10.2199 22.5912ZM28.5625 8.03802V2.46995H-15.4375V8.03802H28.5625ZM28.5625 2.46995C28.5625 8.94285 25.5903 14.4322 21.5391 17.967L-7.38901 -15.1866C-12.0965 -11.0791 -15.4375 -4.81289 -15.4375 2.46995H28.5625ZM21.5391 17.967C17.5834 21.4186 12.7878 22.943 8.3125 22.943V-21.057C2.9089 -21.057 -2.77689 -19.2109 -7.38901 -15.1866L21.5391 17.967ZM8.3125 22.943H12.25V-21.057H8.3125V22.943ZM12.25 22.943C7.77465 22.943 2.9791 21.4186 -0.976639 17.967L27.9515 -15.1866C23.3394 -19.2109 17.6536 -21.057 12.25 -21.057V22.943ZM-0.976639 17.967C-5.02776 14.4322 -8 8.94285 -8 2.46995H36C36 -4.81289 32.659 -11.0791 27.9515 -15.1866L-0.976639 17.967ZM-8 2.46995V11.6317H36V2.46995H-8ZM-8 11.6317C-8 5.15882 -5.02777 -0.330557 -0.976639 -3.86536L27.9515 29.2882C32.659 25.1807 36 18.9146 36 11.6317H-8ZM-0.976639 -3.86536C2.97911 -7.31695 7.77466 -8.84132 12.25 -8.84132V35.1587C17.6536 35.1587 23.3394 33.3126 27.9515 29.2882L-0.976639 -3.86536ZM12.25 -8.84132H1.75V35.1587H12.25V-8.84132ZM1.75 -8.84132C6.22534 -8.84132 11.0209 -7.31695 14.9766 -3.86536L-13.9515 29.2882C-9.33939 33.3126 -3.65359 35.1587 1.75 35.1587V-8.84132ZM14.9766 -3.86536C19.0278 -0.330544 22 5.15884 22 11.6317H-22C-22 18.9145 -18.659 25.1807 -13.9515 29.2882L14.9766 -3.86536ZM22 11.6317V2.46995H-22V11.6317H22ZM22 2.46995C22 8.94283 19.0278 14.4322 14.9766 17.967L-13.9515 -15.1866C-18.659 -11.079 -22 -4.81288 -22 2.46995H22ZM14.9766 17.967C11.0209 21.4186 6.22534 22.943 1.75 22.943V-21.057C-3.6536 -21.057 -9.33939 -19.2109 -13.9515 -15.1866L14.9766 17.967ZM1.75 22.943H3.9375V-21.057H1.75V22.943ZM3.9375 22.943C-0.885943 22.943 -6.01533 21.298 -10.2172 17.6316L18.7109 -15.522C14.345 -19.3315 8.99301 -21.057 3.9375 -21.057V22.943ZM-10.2172 17.6316C-14.5145 13.882 -17.625 8.10136 -17.625 1.32473H26.375C26.375 -5.65438 23.1723 -11.6292 18.7109 -15.522L-10.2172 17.6316ZM-17.625 1.32473C-17.625 -5.45189 -14.5145 -11.2326 -10.2172 -14.9821L18.7109 18.1715C23.1723 14.2787 26.375 8.30385 26.375 1.32473H-17.625ZM-10.2172 -14.9821C-6.01533 -18.6485 -0.885938 -20.2935 3.9375 -20.2935V23.7065C8.993 23.7065 14.345 21.981 18.7109 18.1715L-10.2172 -14.9821ZM3.9375 -20.2935H1.75V23.7065H3.9375V-20.2935Z" fill="white" mask="url(#path-1-inside-1_1_7563)"/>
</g>
</g>
<defs>
<clipPath id="clip0_1_7563">
<rect width="14" height="12.2157" fill="white" transform="translate(0 0.942993)"/>
</clipPath>
</defs>
</svg>
