<svg width="26" height="25" viewBox="0 0 26 25" fill="none" xmlns="http://www.w3.org/2000/svg">
<g id="mdi:twitter">
<path id="Vector" d="M24.3317 6.25002C23.4975 6.6146 22.5983 6.85419 21.6667 6.96877C22.62 6.41669 23.3567 5.54169 23.7033 4.4896C22.8042 5.01044 21.8075 5.37502 20.7567 5.58335C19.9008 4.68752 18.6983 4.16669 17.3333 4.16669C14.7875 4.16669 12.7075 6.16669 12.7075 8.63544C12.7075 8.9896 12.7508 9.33335 12.8267 9.65627C8.97 9.46877 5.53584 7.68752 3.25 4.9896C2.84917 5.64585 2.62167 6.41669 2.62167 7.22919C2.62167 8.78127 3.43417 10.1563 4.69083 10.9375C3.92167 10.9375 3.20667 10.7292 2.57834 10.4167V10.4479C2.57834 12.6146 4.18167 14.4271 6.305 14.8334C5.62329 15.0127 4.9076 15.0377 4.21417 14.9063C4.50841 15.7943 5.08467 16.5713 5.86194 17.1281C6.63921 17.6849 7.5784 17.9935 8.5475 18.0104C6.90477 19.2609 4.8685 19.9368 2.77333 19.9271C2.405 19.9271 2.03667 19.9063 1.66833 19.8646C3.72667 21.1354 6.175 21.875 8.79667 21.875C17.3333 21.875 22.0242 15.0625 22.0242 9.15627C22.0242 8.95835 22.0242 8.77085 22.0133 8.57294C22.9233 7.94794 23.7033 7.15627 24.3317 6.25002Z" fill="white"/>
</g>
</svg>
