<svg width="26" height="25" viewBox="0 0 26 25" fill="none" xmlns="http://www.w3.org/2000/svg">
<g id="mdi:youtube">
<path id="Vector" d="M10.8334 15.625L16.4559 12.5L10.8334 9.37498V15.625ZM23.3567 7.46873C23.4975 7.95831 23.595 8.61456 23.66 9.4479C23.7359 10.2812 23.7684 11 23.7684 11.625L23.8334 12.5C23.8334 14.7812 23.66 16.4583 23.3567 17.5312C23.0859 18.4687 22.4575 19.0729 21.4825 19.3333C20.9734 19.4687 20.0417 19.5625 18.6117 19.625C17.2034 19.6979 15.9142 19.7291 14.7225 19.7291L13 19.7916C8.46085 19.7916 5.63335 19.625 4.51752 19.3333C3.54252 19.0729 2.91419 18.4687 2.64335 17.5312C2.50252 17.0416 2.40502 16.3854 2.34002 15.5521C2.26419 14.7187 2.23169 14 2.23169 13.375L2.16669 12.5C2.16669 10.2187 2.34002 8.54165 2.64335 7.46873C2.91419 6.53123 3.54252 5.92706 4.51752 5.66665C5.02669 5.53123 5.95835 5.43748 7.38835 5.37498C8.79669 5.30206 10.0859 5.27081 11.2775 5.27081L13 5.20831C17.5392 5.20831 20.3667 5.37498 21.4825 5.66665C22.4575 5.92706 23.0859 6.53123 23.3567 7.46873Z" fill="white"/>
</g>
</svg>
